<?xml version="1.0" encoding="UTF-8" standalone="no"?>
    <svg xmlns="http://www.w3.org/2000/svg" xmlns:svg="http://www.w3.org/2000/svg" width="794" height="1123">
            <style>
                line{
                    stroke:black;
                    stroke-opacity:0.5;
                    stroke-width: 0.75;
                    shape-rendering: crispEdges;
                }
            </style>
        <line x1="0.25" y1="0" x2="0.25" y2="3580"/>
<line x1="20.29" y1="0" x2="20.29" y2="3580"/>
<line x1="40.33" y1="0" x2="40.33" y2="3580"/>
<line x1="60.37" y1="0" x2="60.37" y2="3580"/>
<line x1="80.41" y1="0" x2="80.41" y2="3580"/>
<line x1="100.44999999999999" y1="0" x2="100.44999999999999" y2="3580"/>
<line x1="120.49" y1="0" x2="120.49" y2="3580"/>
<line x1="140.53" y1="0" x2="140.53" y2="3580"/>
<line x1="160.57" y1="0" x2="160.57" y2="3580"/>
<line x1="180.60999999999999" y1="0" x2="180.60999999999999" y2="3580"/>
<line x1="200.64999999999998" y1="0" x2="200.64999999999998" y2="3580"/>
<line x1="220.69" y1="0" x2="220.69" y2="3580"/>
<line x1="240.73" y1="0" x2="240.73" y2="3580"/>
<line x1="260.77" y1="0" x2="260.77" y2="3580"/>
<line x1="280.81" y1="0" x2="280.81" y2="3580"/>
<line x1="300.84999999999997" y1="0" x2="300.84999999999997" y2="3580"/>
<line x1="320.89" y1="0" x2="320.89" y2="3580"/>
<line x1="340.93" y1="0" x2="340.93" y2="3580"/>
<line x1="360.96999999999997" y1="0" x2="360.96999999999997" y2="3580"/>
<line x1="381.01" y1="0" x2="381.01" y2="3580"/>
<line x1="401.04999999999995" y1="0" x2="401.04999999999995" y2="3580"/>
<line x1="421.09" y1="0" x2="421.09" y2="3580"/>
<line x1="441.13" y1="0" x2="441.13" y2="3580"/>
<line x1="461.16999999999996" y1="0" x2="461.16999999999996" y2="3580"/>
<line x1="481.21" y1="0" x2="481.21" y2="3580"/>
<line x1="501.25" y1="0" x2="501.25" y2="3580"/>
<line x1="521.29" y1="0" x2="521.29" y2="3580"/>
<line x1="541.3299999999999" y1="0" x2="541.3299999999999" y2="3580"/>
<line x1="561.37" y1="0" x2="561.37" y2="3580"/>
<line x1="581.41" y1="0" x2="581.41" y2="3580"/>
<line x1="601.4499999999999" y1="0" x2="601.4499999999999" y2="3580"/>
<line x1="621.49" y1="0" x2="621.49" y2="3580"/>
<line x1="641.53" y1="0" x2="641.53" y2="3580"/>
<line x1="661.5699999999999" y1="0" x2="661.5699999999999" y2="3580"/>
<line x1="681.61" y1="0" x2="681.61" y2="3580"/>
<line x1="701.65" y1="0" x2="701.65" y2="3580"/>
<line x1="721.6899999999999" y1="0" x2="721.6899999999999" y2="3580"/>
<line x1="741.73" y1="0" x2="741.73" y2="3580"/>
<line x1="761.77" y1="0" x2="761.77" y2="3580"/>
<line x1="781.81" y1="0" x2="781.81" y2="3580"/>
<line x1="801.8499999999999" y1="0" x2="801.8499999999999" y2="3580"/>
<line x1="821.89" y1="0" x2="821.89" y2="3580"/>
<line x1="841.93" y1="0" x2="841.93" y2="3580"/>
<line x1="861.9699999999999" y1="0" x2="861.9699999999999" y2="3580"/>
        <line x1="0" y1="0.25" x2="2480" y2="0.25"/>
<line x1="0" y1="20.29" x2="2480" y2="20.29"/>
<line x1="0" y1="40.33" x2="2480" y2="40.33"/>
<line x1="0" y1="60.37" x2="2480" y2="60.37"/>
<line x1="0" y1="80.41" x2="2480" y2="80.41"/>
<line x1="0" y1="100.44999999999999" x2="2480" y2="100.44999999999999"/>
<line x1="0" y1="120.49" x2="2480" y2="120.49"/>
<line x1="0" y1="140.53" x2="2480" y2="140.53"/>
<line x1="0" y1="160.57" x2="2480" y2="160.57"/>
<line x1="0" y1="180.60999999999999" x2="2480" y2="180.60999999999999"/>
<line x1="0" y1="200.64999999999998" x2="2480" y2="200.64999999999998"/>
<line x1="0" y1="220.69" x2="2480" y2="220.69"/>
<line x1="0" y1="240.73" x2="2480" y2="240.73"/>
<line x1="0" y1="260.77" x2="2480" y2="260.77"/>
<line x1="0" y1="280.81" x2="2480" y2="280.81"/>
<line x1="0" y1="300.84999999999997" x2="2480" y2="300.84999999999997"/>
<line x1="0" y1="320.89" x2="2480" y2="320.89"/>
<line x1="0" y1="340.93" x2="2480" y2="340.93"/>
<line x1="0" y1="360.96999999999997" x2="2480" y2="360.96999999999997"/>
<line x1="0" y1="381.01" x2="2480" y2="381.01"/>
<line x1="0" y1="401.04999999999995" x2="2480" y2="401.04999999999995"/>
<line x1="0" y1="421.09" x2="2480" y2="421.09"/>
<line x1="0" y1="441.13" x2="2480" y2="441.13"/>
<line x1="0" y1="461.16999999999996" x2="2480" y2="461.16999999999996"/>
<line x1="0" y1="481.21" x2="2480" y2="481.21"/>
<line x1="0" y1="501.25" x2="2480" y2="501.25"/>
<line x1="0" y1="521.29" x2="2480" y2="521.29"/>
<line x1="0" y1="541.3299999999999" x2="2480" y2="541.3299999999999"/>
<line x1="0" y1="561.37" x2="2480" y2="561.37"/>
<line x1="0" y1="581.41" x2="2480" y2="581.41"/>
<line x1="0" y1="601.4499999999999" x2="2480" y2="601.4499999999999"/>
<line x1="0" y1="621.49" x2="2480" y2="621.49"/>
<line x1="0" y1="641.53" x2="2480" y2="641.53"/>
<line x1="0" y1="661.5699999999999" x2="2480" y2="661.5699999999999"/>
<line x1="0" y1="681.61" x2="2480" y2="681.61"/>
<line x1="0" y1="701.65" x2="2480" y2="701.65"/>
<line x1="0" y1="721.6899999999999" x2="2480" y2="721.6899999999999"/>
<line x1="0" y1="741.73" x2="2480" y2="741.73"/>
<line x1="0" y1="761.77" x2="2480" y2="761.77"/>
<line x1="0" y1="781.81" x2="2480" y2="781.81"/>
<line x1="0" y1="801.8499999999999" x2="2480" y2="801.8499999999999"/>
<line x1="0" y1="821.89" x2="2480" y2="821.89"/>
<line x1="0" y1="841.93" x2="2480" y2="841.93"/>
<line x1="0" y1="861.9699999999999" x2="2480" y2="861.9699999999999"/>
<line x1="0" y1="882.01" x2="2480" y2="882.01"/>
<line x1="0" y1="902.05" x2="2480" y2="902.05"/>
<line x1="0" y1="922.0899999999999" x2="2480" y2="922.0899999999999"/>
<line x1="0" y1="942.13" x2="2480" y2="942.13"/>
<line x1="0" y1="962.17" x2="2480" y2="962.17"/>
<line x1="0" y1="982.2099999999999" x2="2480" y2="982.2099999999999"/>
<line x1="0" y1="1002.25" x2="2480" y2="1002.25"/>
<line x1="0" y1="1022.29" x2="2480" y2="1022.29"/>
<line x1="0" y1="1042.33" x2="2480" y2="1042.33"/>
<line x1="0" y1="1062.37" x2="2480" y2="1062.37"/>
<line x1="0" y1="1082.4099999999999" x2="2480" y2="1082.4099999999999"/>
<line x1="0" y1="1102.45" x2="2480" y2="1102.45"/>
<line x1="0" y1="1122.49" x2="2480" y2="1122.49"/>
<line x1="0" y1="1142.53" x2="2480" y2="1142.53"/>
<line x1="0" y1="1162.57" x2="2480" y2="1162.57"/>
<line x1="0" y1="1182.61" x2="2480" y2="1182.61"/>
<line x1="0" y1="1202.6499999999999" x2="2480" y2="1202.6499999999999"/>
    </svg>
    